PathFileType	4	(X/Y/Z)	Captury_Subj1_squat02.trc
DataRate	CameraRate	NumFrames	NumMarkers	Units	OrigDataRate	OrigDataStartFrame	OrigNumFrames
60.0	60.0	5	47	mm	59.99879837036133	214	284
Frame#	Time		LeftUpLeg_		RightUpLeg_		LeftLeg_		RightLeg_		LeftFoot_		RightFoot_		LeftToeBase_		RightToeBase_		Knee_Lateral_r		Knee_Lateral_l		Ankle_Lateral_r		Ankle_Lateral_l		LeftArm_		LeftForeArm_		LeftHand_		LeftHandEE		RightArm_		RightForeArm_		RightHand_		RightHandEE		Spine_		Spine1_		Spine2_		Spine3_		Spine4_		Spine5_		Spine_x		Spine_y		Spine_z		RASI		LASI		RIPS		LIPS		RTHI		LTHI		RTIB		LTIB		RTOE		LTOE		RHEE		LHEE		RHipAngles		LHipAngles		RKneeAngles		LKneeAngles		RAnkleAngles		LAnkleAngles
			X1	Y1	Z1	X2	Y2	Z2	X3	Y3	Z3	X4	Y4	Z4	X5	Y5	Z5	X6	Y6	Z6	X7	Y7	Z7	X8	Y8	Z8	X9	Y9	Z9	X10	Y10	Z10	X11	Y11	Z11	X12	Y12	Z12	X13	Y13	Z13	X14	Y14	Z14	X15	Y15	Z15	X16	Y16	Z16	X17	Y17	Z17	X18	Y18	Z18	X19	Y19	Z19	X20	Y20	Z20	X21	Y21	Z21	X22	Y22	Z22	X23	Y23	Z23	X24	Y24	Z24	X25	Y25	Z25	X26	Y26	Z26	X27	Y27	Z27	X28	Y28	Z28	X29	Y29	Z29	X30	Y30	Z30	X31	Y31	Z31	X32	Y32	Z32	X33	Y33	Z33	X34	Y34	Z34	X35	Y35	Z35	X36	Y36	Z36	X37	Y37	Z37	X38	Y38	Z38	X39	Y39	Z39	X40	Y40	Z40	X41	Y41	Z41	X42	Y42	Z42	X43	Y43	Z43	X44	Y44	Z44	X45	Y45	Z45	X46	Y46	Z46	X47	Y47	Z47

214	3.55000	-172.04753	755.21277	226.86157	-6.40686	761.12689	218.60623	-245.44685	451.60925	-20.78638	44.97063	452.36935	-28.21605	-224.67656	92.16064	54.87311	52.72826	92.34567	47.16180	-241.52240	27.35145	-52.89639	77.01205	24.87718	-57.51183	90.31854	452.05869	-22.15352	-289.48370	449.25443	-8.60056	95.77636	95.82156	70.89061	-264.38153	92.88092	84.04970	-253.45760	1162.48730	-58.58908	-257.47250	1170.15674	-334.80603	-249.89523	1194.12524	-566.91119	-253.75960	1203.49316	-651.50854	15.35226	1173.76257	-76.37511	15.55575	1164.98340	-352.58810	10.76978	1185.45227	-585.10223	18.31838	1189.90759	-669.85229	-94.61337	833.52362	168.64584	-100.36497	894.04779	100.00555	-104.08513	953.77496	74.35611	-108.05664	1038.21948	66.60642	-115.76983	1150.55103	9.28294	0.00000	0.00000	0.00000	-48.15296	835.18250	166.33031	-97.43874	865.16681	134.62511	-94.25170	867.62115	200.33040	45.59506	737.68024	106.06876	-233.16739	727.72705	119.96193	-55.53282	836.32330	206.21660	-129.86948	833.66913	209.92145	81.71027	614.45795	114.02499	-268.22821	608.00378	130.46434	86.78893	288.47754	-3.44219	-270.31238	231.57762	15.15411	87.89769	7.68668	-126.08795	-251.45119	-1.20622	-117.72366	55.82689	40.19238	106.04071	-217.68626	37.12468	110.71640	-85.65462	4.61216	9.54745	-87.90796	7.45656	10.05267	-44.93741	0.03173	-0.11349	-46.99561	-0.23992	-0.61426	5.23351	1.15589	10.83402	3.07953	-5.64889	5.50058
215	3.56667	-173.12119	765.21857	220.83771	-7.47101	770.85608	212.58023	-242.77910	452.50562	-16.33403	42.75622	454.22336	-24.30159	-225.24829	92.08401	55.41581	52.84236	93.36734	46.69310	-241.57434	27.29336	-52.44473	76.52271	24.84409	-57.43216	88.13190	454.10339	-18.44354	-286.90759	450.34775	-4.44695	95.98062	97.20376	70.20157	-265.11899	93.01358	84.35954	-252.99530	1180.97644	-56.73021	-257.45471	1186.85388	-332.98419	-250.07536	1209.08667	-565.26831	-252.78903	1218.54980	-649.89978	15.92700	1191.94739	-73.22853	15.59937	1182.11938	-349.40601	10.40088	1201.45215	-582.00842	18.94637	1207.07104	-666.59448	-95.48601	845.27588	165.32820	-101.10770	908.15118	98.17017	-104.64638	968.92346	73.75389	-108.33887	1053.96667	67.53378	-115.54658	1167.78076	12.03346	0.00000	0.00000	0.00000	-49.02293	846.85712	163.01207	-98.24236	878.11261	132.45216	-94.96893	878.22937	198.19891	44.31607	751.22931	99.21571	-234.46240	741.74170	113.11249	-56.35149	846.61090	202.92336	-130.69241	844.08093	206.62917	80.15807	620.84888	112.41727	-267.69095	614.11011	128.98764	85.59377	290.28363	-1.67946	-269.57172	232.29312	17.02094	87.07061	7.07822	-125.91434	-251.19170	-1.21119	-117.34227	56.03534	41.76556	106.05095	-218.53143	37.03852	111.28324	-81.73221	4.40623	9.29044	-83.69101	6.94865	9.92168	-42.36107	0.02025	-0.09682	-44.18379	-0.22351	-0.55346	6.52475	1.10392	10.52178	3.77167	-5.64199	5.21554
216	3.58333	-173.79945	774.18933	215.38412	-8.14735	780.16589	207.40840	-240.28476	453.93152	-12.44624	40.82271	456.34671	-19.82520	-225.10158	92.56250	54.94019	52.96619	94.61118	46.19721	-241.06769	27.49794	-52.80933	76.03797	25.23719	-57.50047	86.22446	456.37512	-14.17150	-284.46652	451.87415	-0.74055	96.18524	98.73637	69.50758	-265.06781	93.65865	83.74602	-252.62637	1198.64429	-54.52216	-257.57874	1202.76953	-330.79953	-250.38574	1223.27185	-563.24872	-251.90764	1232.34937	-647.95221	16.37980	1209.06482	-70.02874	15.58159	1198.88574	-346.19260	10.27957	1217.45312	-578.85510	19.30510	1222.92700	-663.40082	-96.17205	856.00867	162.49475	-101.74403	921.10779	96.63908	-105.19655	982.95184	73.28788	-108.70449	1068.66980	68.41427	-115.41698	1183.97241	14.55656	0.00000	0.00000	0.00000	-49.70843	857.68506	160.25764	-98.92574	889.87299	130.67798	-95.69037	887.90033	196.39713	43.71500	764.17914	93.50778	-235.06674	754.12091	106.93040	-57.05993	856.16620	200.13657	-131.40172	853.48395	203.71593	78.94026	627.08051	111.52181	-266.96301	619.76715	127.70302	84.55714	292.32996	0.39445	-268.48337	233.49384	18.14768	86.26529	7.04166	-125.91843	-250.48344	-1.07476	-117.70647	56.18464	43.43786	105.92346	-218.47768	37.65734	110.95661	-78.09094	3.96100	9.09448	-80.05364	6.74004	9.87908	-39.79264	0.01493	-0.05836	-41.62651	-0.20362	-0.49793	7.78758	1.05023	10.19084	4.66239	-5.63618	5.02720
217	3.60000	-174.58614	782.76538	209.56375	-8.90859	788.65686	202.06836	-237.72958	455.02765	-8.36501	39.29777	458.15732	-15.50523	-225.25681	92.81650	54.93258	52.79659	95.63788	45.78477	-240.56270	27.02936	-52.47345	75.59604	25.45377	-57.42689	84.70988	458.30350	-9.93736	-282.00641	453.15955	3.00852	96.03807	99.98370	69.01331	-265.42154	94.18104	83.44939	-252.35683	1215.50671	-52.22296	-257.63159	1217.88196	-328.51498	-250.41872	1236.58484	-561.11523	-251.54292	1245.31494	-645.86145	16.68967	1225.73401	-66.88420	15.86278	1215.09192	-343.03058	10.19663	1233.23315	-575.71814	19.91363	1237.86987	-660.23724	-96.69729	866.20184	159.66998	-102.05830	933.61224	95.30373	-105.39309	996.52765	73.12278	-108.79066	1082.88965	69.65608	-115.26096	1199.63257	17.47562	0.00000	0.00000	0.00000	-50.22653	867.85431	157.56761	-99.32583	901.15521	129.04257	-96.20589	896.89740	194.65892	43.11275	776.51801	87.76585	-235.71179	766.60303	100.38011	-57.64872	864.96918	197.35788	-132.00192	862.32520	200.72168	77.83915	632.68573	110.62729	-266.33514	625.19025	126.10214	83.63475	294.04706	2.52519	-267.51569	234.43805	19.50887	85.75070	6.83815	-125.74259	-249.57195	-1.89599	-117.27202	55.77260	44.86190	105.86169	-219.07553	38.29094	111.36880	-74.36187	3.67879	8.88572	-76.13279	6.42489	9.76045	-37.32514	-0.02642	-0.01967	-39.03601	-0.25825	-0.45041	8.97997	1.06121	9.86876	5.75633	-5.63177	4.98966
218	3.61667	-174.97104	791.15497	204.74031	-9.29631	796.84796	197.03181	-235.45715	457.43390	-4.69637	37.39400	460.07449	-11.04437	-225.12204	94.36685	53.90874	52.59991	96.84979	45.48581	-240.22336	27.81609	-53.05486	75.11240	26.07439	-57.38450	82.83131	460.30524	-5.68884	-279.77402	455.63486	6.53143	95.93356	101.40488	68.50150	-265.36990	95.95876	82.29626	-252.23033	1231.55713	-49.58466	-257.51385	1232.20154	-325.88593	-250.06992	1249.13928	-558.61407	-251.12177	1257.63757	-643.38483	16.84288	1241.20312	-63.66315	16.25220	1230.51172	-339.80817	10.60181	1248.58008	-572.50177	20.38346	1252.43555	-657.05273	-96.98264	875.79254	157.07477	-102.33586	945.19781	94.03723	-105.57196	1009.07202	72.91461	-108.75048	1096.01953	70.76629	-114.99896	1214.11096	20.24071	0.00000	0.00000	0.00000	-50.51268	877.38934	154.91261	-99.59118	911.61493	127.46672	-96.33438	905.47235	192.92685	42.43656	787.85803	82.30816	-236.38324	778.27716	95.28107	-57.85260	873.38446	194.62112	-132.20454	870.82959	198.08057	76.78666	638.13391	109.77809	-265.53595	630.94482	125.08896	82.46016	295.92426	4.66520	-266.52258	236.66998	20.24672	85.13706	7.19501	-125.64700	-249.09143	-1.44304	-117.72289	55.49084	46.37478	105.81995	-219.22987	40.24892	110.76666	-71.02682	3.45933	8.73522	-72.87637	6.02121	9.70271	-34.89437	0.00479	0.00164	-36.68753	-0.22413	-0.40559	10.06112	1.18806	9.57002	6.95072	-5.62766	5.07570
